# xmcd
#
# Track frame offsets:
#	150
#	15050
#	28404
#	41841
#	57255
#	71955
#	79579
#	93345
#	109366
#	120732
#	134149
#	147740
#	163349
#	175410
#	190010
#	206434
#	227664
#	238448
#	252633
#	265697
#
# Disc length: 3699 seconds
#
# Revision: 0
# Processed by: cddbd v1.4PL0 Copyright (c) Steve Scherf et al.
# Submitted via: audiograbber 1.80
#
DISCID=340e7114
DTITLE=Tião Carreiro and Pardinho - Pagodes 2
DYEAR=1900
DGENRE=
TTITLE0=Nove,nove
TTITLE1=Adeus São Paulo
TTITLE2=Pagode em Brasília
TTITLE3=Uma coisa puxa a outra
TTITLE4=Tudo certo
TTITLE5=Pagode
TTITLE6=Bandeira Branca
TTITLE7=Confiança
TTITLE8=Empreitada perigosa
TTITLE9=É isso que o povo quer
TTITLE10=Tudo serve
TTITLE11=Ponta de espada
TTITLE12=Na barba do leão
TTITLE13=Chora viola
TTITLE14=Em tempo de avanço
TTITLE15=Pagode do ala
TTITLE16=Falou e disse
TTITLE17=O rei do pagode
TTITLE18=Bi-campeão mundial
TTITLE19=Sete flexas
EXTD=
EXTT0=
EXTT1=
EXTT2=
EXTT3=
EXTT4=
EXTT5=
EXTT6=
EXTT7=
EXTT8=
EXTT9=
EXTT10=
EXTT11=
EXTT12=
EXTT13=
EXTT14=
EXTT15=
EXTT16=
EXTT17=
EXTT18=
EXTT19=
PLAYORDER=
